<svg width="1200" height="900" viewBox="0 0 1200 900" fill="none" xmlns="http://www.w3.org/2000/svg">
  <rect width="1200" height="900" rx="48" fill="#0B1120"/>
  <circle cx="260" cy="210" r="150" fill="#8B5CF6" fill-opacity="0.4"/>
  <circle cx="980" cy="690" r="190" fill="#06B6D4" fill-opacity="0.3"/>
  <rect x="170" y="170" width="860" height="560" rx="36" fill="#111827" stroke="#334155" stroke-width="4"/>
  <rect x="240" y="240" width="700" height="70" rx="18" fill="#1E293B"/>
  <rect x="240" y="348" width="700" height="300" rx="28" fill="#0F172A"/>
  <path d="M300 602V468L410 548L520 430L632 502L744 376L856 452" stroke="#38BDF8" stroke-width="18" stroke-linecap="round" stroke-linejoin="round"/>
  <circle cx="300" cy="602" r="20" fill="#38BDF8"/>
  <circle cx="410" cy="548" r="20" fill="#A78BFA"/>
  <circle cx="520" cy="430" r="20" fill="#38BDF8"/>
  <circle cx="632" cy="502" r="20" fill="#34D399"/>
  <circle cx="744" cy="376" r="20" fill="#A78BFA"/>
  <circle cx="856" cy="452" r="20" fill="#38BDF8"/>
  <rect x="240" y="680" width="260" height="18" rx="9" fill="#CBD5E1"/>
  <rect x="240" y="710" width="190" height="18" rx="9" fill="#94A3B8"/>
</svg>
