<svg width="1200" height="900" viewBox="0 0 1200 900" fill="none" xmlns="http://www.w3.org/2000/svg">
  <rect width="1200" height="900" rx="48" fill="#111827"/>
  <circle cx="1040" cy="180" r="170" fill="#F97316" fill-opacity="0.35"/>
  <circle cx="170" cy="720" r="200" fill="#EC4899" fill-opacity="0.3"/>
  <rect x="150" y="170" width="900" height="560" rx="36" fill="#0F172A" stroke="#334155" stroke-width="4"/>
  <rect x="220" y="240" width="240" height="390" rx="28" fill="#1E293B"/>
  <rect x="500" y="240" width="480" height="120" rx="28" fill="#7C3AED" fill-opacity="0.92"/>
  <rect x="500" y="390" width="220" height="240" rx="28" fill="#F97316" fill-opacity="0.92"/>
  <rect x="760" y="390" width="220" height="240" rx="28" fill="#EC4899" fill-opacity="0.92"/>
  <circle cx="340" cy="390" r="70" fill="#38BDF8"/>
  <circle cx="340" cy="390" r="34" fill="#F8FAFC"/>
  <path d="M560 300H860" stroke="white" stroke-width="18" stroke-linecap="round"/>
  <path d="M560 430H654" stroke="white" stroke-width="18" stroke-linecap="round"/>
  <path d="M810 430H904" stroke="white" stroke-width="18" stroke-linecap="round"/>
  <rect x="220" y="660" width="250" height="18" rx="9" fill="#CBD5E1"/>
  <rect x="220" y="690" width="170" height="18" rx="9" fill="#94A3B8"/>
</svg>
