<svg width="966" height="505" viewBox="0 0 966 505" fill="none" xmlns="http://www.w3.org/2000/svg">
<path d="M1 568.393C189.736 503.243 41.9277 270.071 357.037 213.427C695.299 152.621 913.313 171.968 974.483 1" stroke="#71C6FA" stroke-opacity="0.2" stroke-width="3"/>
<path d="M12.5039 569.182C201.24 504.033 53.4317 270.861 368.541 214.217C706.803 153.41 924.817 172.758 985.987 1.78967" stroke="#71C6FA" stroke-opacity="0.2" stroke-width="3"/>
<path d="M24.0039 569.972C212.74 504.823 64.9317 271.651 380.041 215.006C718.303 154.2 936.317 173.547 997.487 2.57935" stroke="#71C6FA" stroke-opacity="0.2" stroke-width="3"/>
<path d="M35.5078 570.762C224.244 505.612 76.4356 272.44 391.545 215.796C729.807 154.99 947.821 174.337 1008.99 3.36914" stroke="#71C6FA" stroke-opacity="0.2" stroke-width="3"/>
<path d="M47.0078 571.551C235.744 506.402 87.9356 273.23 403.045 216.586C741.307 155.779 959.321 175.127 1020.49 4.15875" stroke="#71C6FA" stroke-opacity="0.2" stroke-width="3"/>
<path d="M58.5117 572.341C247.248 507.192 99.4395 274.02 414.549 217.375C752.811 156.569 970.825 175.917 1031.99 4.94849" stroke="#71C6FA" stroke-opacity="0.2" stroke-width="3"/>
<path d="M70.0117 573.131C258.748 507.981 110.939 274.809 426.049 218.165C764.311 157.359 982.325 176.706 1043.49 5.7381" stroke="#71C6FA" stroke-opacity="0.2" stroke-width="3"/>
<path d="M81.5117 573.921C270.248 508.771 122.439 275.599 437.549 218.955C775.811 158.149 993.825 177.496 1054.99 6.52789" stroke="#71C6FA" stroke-opacity="0.2" stroke-width="3"/>
<path d="M93.0156 574.71C281.752 509.561 133.943 276.389 449.053 219.744C787.315 158.938 1005.33 178.286 1066.5 7.3175" stroke="#71C6FA" stroke-opacity="0.2" stroke-width="3"/>
<path d="M104.516 575.5C293.252 510.35 145.443 277.178 460.553 220.534C798.815 159.728 1016.83 179.075 1078 8.10724" stroke="#71C6FA" stroke-opacity="0.2" stroke-width="3"/>
</svg>
